HIERARCHY
ROOT Hips
{
  OFFSET -331.093 83.8371 -317.828
  CHANNELS 6 Xposition Yposition Zposition Zrotation Xrotation Yrotation
  JOINT LeftUpLeg
  {
    OFFSET 8.64259 1.95398 -2.38835
    CHANNELS 3 Zrotation Xrotation Yrotation
    JOINT LeftLeg
    {
      OFFSET 43.7702 0 0
      CHANNELS 3 Zrotation Xrotation Yrotation
      JOINT LeftFoot
      {
        OFFSET 40.6238 0 0
        CHANNELS 3 Zrotation Xrotation Yrotation
        JOINT LeftToeBase
        {
          OFFSET 12.7242 0 0
          CHANNELS 3 Zrotation Xrotation Yrotation
          End Site
          {
            OFFSET 0 0 0
          }
        }
      }
    }
  }
  JOINT RightUpLeg
  {
    OFFSET -8.2249 1.95398 -2.59336
    CHANNELS 3 Zrotation Xrotation Yrotation
    JOINT RightLeg
    {
      OFFSET 43.5653 0 0
      CHANNELS 3 Zrotation Xrotation Yrotation
      JOINT RightFoot
      {
        OFFSET 40.6238 0 0
        CHANNELS 3 Zrotation Xrotation Yrotation
        JOINT RightToeBase
        {
          OFFSET 12.7242 0 0
          CHANNELS 3 Zrotation Xrotation Yrotation
          End Site
          {
            OFFSET 0 0 0
          }
        }
      }
    }
  }
  JOINT Spine
  {
    OFFSET 0.165834 0.87714 6.61349
    CHANNELS 3 Zrotation Xrotation Yrotation
    JOINT Spine1
    {
      OFFSET 7.38963 1.71661e-005 0
      CHANNELS 3 Zrotation Xrotation Yrotation
      JOINT Spine2
      {
        OFFSET 11.9445 1.14441e-005 0
        CHANNELS 3 Zrotation Xrotation Yrotation
        JOINT Spine3
        {
          OFFSET 14.7254 4.19617e-005 0
          CHANNELS 3 Zrotation Xrotation Yrotation
          JOINT Spine4
          {
            OFFSET 10.9679 0 0
            CHANNELS 3 Zrotation Xrotation Yrotation
            JOINT RightShoulder
            {
              OFFSET 2.46616 -1.6653 3.69651
              CHANNELS 3 Zrotation Xrotation Yrotation
              JOINT RightArm
              {
                OFFSET 13.0012 0 0
                CHANNELS 3 Zrotation Xrotation Yrotation
                JOINT RightForeArm
                {
                  OFFSET 28.7848 1.62311e-005 0
                  CHANNELS 3 Zrotation Xrotation Yrotation
                  JOINT RightHand
                  {
                    OFFSET 26.5688 1.62095e-005 0
                    CHANNELS 3 Zrotation Xrotation Yrotation
                    End Site
                    {
                      OFFSET 0 0 0
                    }
                  }
                }
              }
            }
            JOINT LeftShoulder
            {
              OFFSET 2.38034 -1.29275 -3.7523
              CHANNELS 3 Zrotation Xrotation Yrotation
              JOINT LeftArm
              {
                OFFSET 16.3182 6.07031e-005 0
                CHANNELS 3 Zrotation Xrotation Yrotation
                JOINT LeftForeArm
                {
                  OFFSET 27.0901 0 0
                  CHANNELS 3 Zrotation Xrotation Yrotation
                  JOINT LeftHand
                  {
                    OFFSET 24.5451 1.51738e-005 0
                    CHANNELS 3 Zrotation Xrotation Yrotation
                    End Site
                    {
                      OFFSET 0 0 0
                    }
                  }
                }
              }
            }
            JOINT Neck
            {
              OFFSET 5.0226 -0.0266342 0
              CHANNELS 3 Zrotation Xrotation Yrotation
              JOINT Head
              {
                OFFSET 6.69364 2.86102e-005 0
                CHANNELS 3 Zrotation Xrotation Yrotation
                End Site
                {
                  OFFSET 0 0 0
                }
              }
            }
          }
        }
      }
    }
  }
}
MOTION
Frames:	16
Frame Time:	0.0416667
-59.5718 99.1331 49.6893 -79.5396 -87.071 -78.8105 -174.533 5.95654 92.0013 -10.3798 5.6369 -0.924117 62.5704 1.57384 3.09006 26.2001 -2.09957 -1.11814 172.124 3.45273 90.1756 -8.56163 -4.60982 -1.82793 63.0324 -1.88888 -1.02454 28.3514 -0.375995 -3.35361 -0.00337293 6.87577 -90.0715 13.1112 -0.0410554 -0.138057 1.44019 -0.0470865 -0.136127 -21.0949 0.00234216 -0.150588 -1.08226 0.00232918 -0.150593 90.8795 -40.3844 -101.405 33.1519 -16.4213 0.388493 -6.18409 -11.449 -38.2057 -8.5575 -0.555738 1.86462 -98.8295 -50.2315 66.3161 -21.6798 11.5741 2.66575 4.94424 16.0363 -32.4298 11.0294 0.811339 3.29499 3.10136 1.1547 2.85232 -10.1833 0.675942 -0.133105 
-59.5531 99.0942 49.6908 -78.367 -87.1617 -77.6594 -174.364 6.75207 92.128 -11.6058 5.56903 -1.13514 62.2134 1.48661 3.40584 28.5902 -0.991565 -4.08456 172.174 3.48596 90.1342 -8.73883 -4.93633 -1.92843 63.7904 -2.16401 -1.17877 26.9956 -0.326098 -3.46098 -0.00573855 6.87485 -90.074 13.1246 -0.046971 -0.142283 1.45367 -0.0531873 -0.140088 -21.0814 -0.0020408 -0.148915 -1.06877 -0.00204041 -0.148917 90.9397 -40.2651 -101.334 33.1426 -16.4565 0.239393 -5.45833 -11.6683 -37.6101 -8.87958 -0.560242 1.6567 -98.8487 -50.2789 66.3046 -21.6722 11.5871 2.53066 5.07065 16.398 -32.3543 10.5996 0.821033 3.63447 4.29093 1.54771 2.946 -10.8226 1.01383 -0.0818574 
-59.5695 99.1176 49.7114 -80.3888 -87.2929 -79.7004 -174.409 6.42868 92.0869 -11.2161 5.77407 -1.07622 62.036 1.57553 3.57773 28.459 -1.05253 -3.93126 172.044 3.2494 90.106 -8.53914 -4.20944 -1.79538 64.3893 -2.47005 -1.34552 25.2038 -0.11692 -2.10782 -0.0304115 6.881 -90.0653 13.1118 -0.09177 -0.119383 1.44088 -0.0969308 -0.115235 -21.0942 -0.0516498 -0.141453 -1.0816 -0.0516461 -0.141445 90.8354 -40.2307 -101.522 33.1226 -16.5317 0.30845 -5.23876 -11.3231 -37.7378 -8.76383 -0.531326 1.32802 -98.7452 -50.2694 66.4511 -21.7209 11.5977 2.6453 5.1011 16.3265 -32.4944 11.1714 0.881238 3.79928 4.19363 1.6027 2.8336 -10.8099 1.08031 0.0522953 
-59.5707 99.107 49.7455 -79.2906 -87.2694 -78.5403 -174.365 6.5742 92.1673 -11.3838 5.69261 -1.10218 62.022 1.53876 3.61406 28.6425 -1.00156 -4.29652 172.087 3.50899 90.1845 -8.78512 -4.47003 -1.8178 63.2798 -1.94484 -1.05754 27.9546 -0.338461 -3.12392 -0.0277646 6.88125 -90.0712 13.1117 -0.0892964 -0.13134 1.44077 -0.0949886 -0.12729 -21.0943 -0.045694 -0.152108 -1.08169 -0.0456971 -0.152111 90.9183 -40.2239 -101.382 32.9152 -16.6705 0.045431 -5.2841 -11.1564 -37.6964 -8.69869 -0.529155 1.35126 -98.6766 -50.2692 66.5496 -21.6482 11.6432 2.54605 5.02369 16.1394 -32.5053 11.2967 0.89067 3.80298 4.3666 1.59345 2.71021 -10.9467 1.07075 0.277962 
-59.5658 99.1229 49.8 -78.8877 -87.3071 -78.1166 -174.379 6.58185 92.1655 -11.4403 5.87549 -1.08917 62.1213 1.56041 3.60793 28.1776 -1.23814 -3.89581 172.091 3.21037 90.176 -8.49403 -4.38591 -1.78362 62.9705 -1.80745 -0.981158 28.5078 -0.367886 -3.22005 -0.0371987 6.87603 -90.079 13.1106 -0.111843 -0.144409 1.43961 -0.118086 -0.139354 -21.0955 -0.0632704 -0.171346 -1.08285 -0.0632724 -0.171356 90.8974 -40.1742 -101.431 32.8589 -16.4721 -0.119054 -5.63735 -11.815 -37.3975 -8.47394 -0.565063 2.09338 -98.6589 -50.3053 66.588 -21.6052 11.6268 2.5164 4.99199 16.015 -32.5173 10.9859 0.861683 3.74796 4.61698 1.65478 2.81321 -11.2743 1.10728 0.258711 
-59.5971 99.1151 49.8077 -80.1114 -87.3245 -79.4089 -174.42 6.14718 92.0778 -10.8985 5.37632 -1.00498 62.703 1.9256 3.0042 27.3895 -1.6696 -3.3292 172.026 3.54443 90.1098 -9.19719 -4.30215 -1.76638 63.0939 -1.72199 -0.941341 28.8984 -0.383752 -3.20267 -0.0384292 6.87485 -90.0756 13.1038 -0.11262 -0.143914 1.43286 -0.118562 -0.139309 -21.1022 -0.0660867 -0.164997 -1.08959 -0.0660926 -0.165005 90.8804 -40.059 -101.493 33.0261 -16.4166 0.0368184 -5.70427 -11.7261 -37.6505 -8.4001 -0.555258 2.00137 -98.6852 -50.338 66.5606 -21.6231 11.538 2.5013 4.91019 15.8155 -32.4985 11.0787 0.834473 3.46169 4.47128 1.69733 2.73586 -11.0776 1.15435 0.425297 
-59.6222 99.1742 49.8389 -79.5563 -87.4132 -78.9245 -174.524 6.28238 92.0109 -11.0251 5.63134 -0.936133 61.9349 1.43418 3.19638 28.6168 -0.886325 -3.64794 172.03 3.72788 90.1005 -9.39709 -4.22693 -1.8411 62.983 -1.65194 -0.901652 28.9309 -0.392827 -3.26632 -0.0357121 6.87541 -90.0751 13.0987 -0.106981 -0.136882 1.42779 -0.112916 -0.132017 -21.1073 -0.0607826 -0.163069 -1.09467 -0.060785 -0.163071 90.8879 -40.0876 -101.472 33.0623 -16.2789 0.133834 -5.75613 -12.3984 -37.7063 -8.97342 -0.62569 2.55286 -98.7938 -50.4039 66.4274 -21.5401 11.6479 2.52782 4.97198 15.959 -32.4933 11.1041 0.835663 3.45693 5.13957 2.61626 2.99846 -11.7589 2.01851 0.125435 
-59.6323 99.1327 49.8604 -81.5065 -87.1844 -80.8011 -174.366 6.2868 92.1439 -11.1619 5.66866 -1.07905 61.8872 1.48418 3.61275 28.7458 -0.877846 -4.03726 172.087 3.46877 90.1718 -9.12072 -4.39485 -1.83931 62.9751 -1.70426 -0.928259 28.8463 -0.378184 -3.17586 -0.0126134 6.87613 -90.0934 13.1016 -0.0699749 -0.178536 1.43066 -0.0777687 -0.175293 -21.1044 -0.0130819 -0.191314 -1.09174 -0.0130863 -0.191323 90.8979 -40.1375 -101.441 32.8719 -16.4901 0.0978833 -5.42867 -12.1939 -37.6266 -9.23652 -0.630241 2.391 -98.8188 -50.4517 66.4078 -21.5988 11.7462 2.75056 4.99022 16.0057 -32.6023 11.0127 0.84172 3.56233 4.76735 5.75952 2.7306 -10.6058 5.11865 1.0076 
-59.6339 99.0863 49.9203 -80.0712 -87.0657 -79.344 -174.482 6.23085 92.0616 -11.1618 5.10947 -0.907006 62.7462 1.94842 3.21318 27.5413 -1.61488 -3.58919 172.1 3.55555 90.198 -9.0654 -4.54523 -1.84088 63.218 -1.86619 -1.01767 28.585 -0.359481 -3.1175 0.00458518 6.87617 -90.0905 13.1215 -0.0344355 -0.176873 1.45051 -0.0421949 -0.175193 -21.0845 0.0203092 -0.17905 -1.0719 0.0203062 -0.179052 90.9192 -40.3374 -101.349 32.8321 -16.4429 0.087816 -5.62904 -12.4058 -37.6982 -8.90449 -0.588787 2.03878 -98.5072 -50.14 66.7498 -21.8856 11.6742 2.58232 5.22176 16.4079 -32.6518 11.0176 0.880688 3.88973 4.97729 9.99101 1.6236 -10.7194 9.35839 2.78513 
-59.6251 99.1264 49.9516 -78.669 -87.218 -78.0145 -174.547 6.37008 92.0135 -11.2046 5.30549 -0.903685 62.0218 1.47005 3.41317 28.6406 -0.996561 -4.26739 172.031 3.3347 90.0864 -8.83851 -4.4711 -1.78094 63.1819 -1.84677 -1.00693 28.6749 -0.383645 -3.28915 0.0104222 6.87198 -90.0973 13.1299 -0.0260927 -0.191497 1.45892 -0.0345038 -0.190174 -21.0761 0.0326561 -0.190486 -1.06349 0.032656 -0.190496 90.9647 -40.1213 -101.331 32.9715 -16.5329 0.122671 -5.43297 -12.3705 -37.6069 -9.32541 -0.597288 1.79414 -98.5103 -50.1503 66.7483 -21.727 11.7158 2.43433 5.30254 16.4273 -32.7575 10.6176 0.854711 3.91847 5.47678 14.4017 1.08293 -11.4788 13.6895 4.03295 
-59.6303 99.1281 49.9688 -77.6731 -87.2989 -77.014 -174.565 6.34431 92.0018 -11.1797 5.47487 -0.884962 62.2948 1.57338 3.21496 28.2178 -1.16189 -3.65236 171.987 3.49437 90.0919 -8.97431 -4.44495 -1.75115 63.125 -1.81856 -0.991804 28.8205 -0.404909 -3.41137 0.0221621 6.86383 -90.1103 13.1461 -0.00904645 -0.219516 1.47519 -0.0186992 -0.218905 -21.0598 0.0573425 -0.21209 -1.04719 0.0573466 -0.212084 90.9568 -40.0565 -101.361 32.9557 -16.5492 0.0700303 -5.3513 -12.2676 -37.5041 -9.30257 -0.602371 1.79352 -98.1578 -49.9184 67.1794 -21.9446 11.9655 2.13784 5.25223 16.407 -32.8246 10.7586 0.861898 3.8941 5.5915 18.4707 0.649633 -12.0965 17.6846 5.1247 
-59.5848 99.1206 49.9879 -75.6532 -87.4428 -75.055 -174.523 6.44123 91.9673 -11.1922 5.66546 -0.996975 62.09 1.50317 3.37491 28.4586 -1.01808 -3.75948 171.936 3.5803 89.9977 -9.11924 -4.33459 -1.73946 63.2148 -1.82055 -0.995795 28.7212 -0.374511 -3.19271 0.0385819 6.86916 -90.1182 13.1355 0.019713 -0.238969 1.46456 0.00917417 -0.239604 -21.0705 0.0906183 -0.221998 -1.0578 0.09062 -0.222001 91.0998 -40.0422 -101.118 32.807 -16.5916 -0.0515098 -5.46479 -11.9948 -37.7715 -8.84209 -0.601782 2.30471 -98.0798 -49.8386 67.2656 -21.9057 11.971 1.82094 5.17795 16.4281 -32.6238 10.7007 0.813265 3.50548 5.66605 21.5749 0.50513 -12.6416 20.6901 5.96744 
-59.5706 99.1167 49.9854 -75.5287 -87.4925 -75.0479 -174.66 6.39212 91.7691 -11.0762 5.84887 -0.934653 61.8176 1.61393 3.94745 28.6967 -0.931313 -4.13457 171.867 3.76593 89.8897 -9.3799 -4.27502 -1.75278 63.3461 -1.84973 -1.01412 28.5021 -0.335846 -2.94557 0.0570357 6.88106 -90.1417 13.1117 0.045073 -0.289096 1.44075 0.0323082 -0.290802 -21.0942 0.129878 -0.262186 -1.08154 0.129874 -0.262185 91.2379 -39.6917 -100.974 32.8769 -16.9867 -0.27342 -5.14683 -11.3556 -37.5501 -9.48023 -0.587 1.58623 -98.116 -49.9552 67.2525 -21.9038 12.2164 1.66654 5.07481 16.3349 -32.7149 10.8508 0.881885 4.00455 5.05408 23.787 1.48839 -12.2051 22.7057 6.46287 
-59.6189 99.0938 50.0003 -76.6074 -87.4118 -75.9995 -174.525 6.35651 91.9839 -11.1953 5.58275 -0.960139 62.4582 1.66769 3.14166 28.0901 -1.2069 -3.4368 171.893 3.58577 90.0168 -9.189 -4.45038 -1.69837 63.3283 -1.90135 -1.04061 28.8323 -0.41302 -3.47573 0.0762843 6.89586 -90.1607 13.0822 0.0742224 -0.330538 1.41119 0.0595947 -0.333484 -21.1237 0.170125 -0.292954 -1.11105 0.170124 -0.292957 91.0236 -40.1014 -101.233 32.5747 -16.616 -0.218865 -5.36818 -11.9323 -37.6644 -8.5826 -0.590649 2.39427 -97.9275 -49.8701 67.4979 -21.8757 12.5345 1.68883 5.06038 16.3381 -32.9108 10.8546 0.882182 4.00363 4.94731 25.284 2.27773 -12.1141 24.0746 6.32991 
-59.7148 99.094 49.9726 -74.9331 -87.6755 -74.3353 -174.5 6.40468 92.043 -11.1528 5.75116 -0.979905 62.3548 1.7131 3.2005 28.2115 -1.19262 -3.78301 171.946 3.5758 90.0801 -9.19732 -4.26778 -1.72637 63.4985 -1.99528 -1.09315 28.5772 -0.4006 -3.47148 0.0664242 6.91552 -90.1708 13.0428 0.0498257 -0.347645 1.37179 0.0344738 -0.349509 -21.1631 0.152002 -0.316604 -1.15041 0.152001 -0.316602 91.1018 -39.9286 -101.146 32.8061 -16.6219 -0.25006 -5.42006 -11.4059 -37.4694 -8.25417 -0.528517 1.72227 -97.9083 -49.715 67.4722 -22.0135 12.403 1.55004 5.05194 16.4439 -32.6586 10.6701 0.806209 3.46356 5.42581 26.7612 2.68556 -12.8038 25.3776 6.84643 
-59.7033 99.1445 49.9988 -73.4408 -87.6789 -72.8748 -174.484 6.30982 92.0227 -10.797 5.9527 -1.04112 61.9076 1.63746 3.54355 28.3325 -1.19472 -4.20934 171.928 3.82844 90.0577 -9.52704 -3.978 -1.71992 63.098 -1.6548 -0.907353 28.993 -0.391669 -3.23306 0.104829 6.92205 -90.1861 13.0298 0.118722 -0.386741 1.35886 0.101587 -0.391596 -21.176 0.229463 -0.333185 -1.16333 0.229462 -0.333183 91.2925 -39.8684 -100.833 32.6322 -16.8609 -0.19831 -5.07377 -11.0254 -37.4976 -8.82896 -0.548502 1.5633 -98.0955 -49.7196 67.2013 -22.0497 12.4416 1.29971 4.97602 16.3814 -32.6262 10.7158 0.840381 3.73125 5.82501 27.7865 2.96769 -13.4166 26.3147 6.70944 
